<mxfile host="app.diagrams.net" modified="2021-03-25T08:18:16.774Z" agent="5.0 (Macintosh; Intel Mac OS X 11_2_3) AppleWebKit/537.36 (KHTML, like Gecko) Chrome/89.0.4389.90 Safari/537.36" etag="9RjOddD6KOwEEZQa4VFV" version="14.5.1" type="github">
  <diagram id="prtHgNgQTEPvFCAcTncT" name="Page-1">
    <mxGraphModel dx="1446" dy="883" grid="1" gridSize="10" guides="1" tooltips="1" connect="1" arrows="1" fold="1" page="1" pageScale="1" pageWidth="827" pageHeight="1169" math="0" shadow="0">
      <root>
        <mxCell id="0" />
        <mxCell id="1" parent="0" />
        <mxCell id="dNxyNK7c78bLwvsdeMH5-19" value="Pool" style="swimlane;html=1;childLayout=stackLayout;resizeParent=1;resizeParentMax=0;horizontal=0;startSize=20;horizontalStack=0;" parent="1" vertex="1">
          <mxGeometry x="120" y="120" width="1400" height="600" as="geometry" />
        </mxCell>
        <mxCell id="dNxyNK7c78bLwvsdeMH5-20" value="3" style="swimlane;html=1;startSize=20;horizontal=0;" parent="dNxyNK7c78bLwvsdeMH5-19" vertex="1">
          <mxGeometry x="20" width="1380" height="120" as="geometry" />
        </mxCell>
        <mxCell id="CRqh0J7XH1PmzQY5zFd--72" style="edgeStyle=orthogonalEdgeStyle;rounded=0;orthogonalLoop=1;jettySize=auto;html=1;exitX=1;exitY=0.5;exitDx=0;exitDy=0;" parent="dNxyNK7c78bLwvsdeMH5-20" source="dNxyNK7c78bLwvsdeMH5-24" target="CRqh0J7XH1PmzQY5zFd--67" edge="1">
          <mxGeometry relative="1" as="geometry" />
        </mxCell>
        <mxCell id="dNxyNK7c78bLwvsdeMH5-24" value="Vue:&lt;br&gt;basic/sytlereforge" style="rounded=0;whiteSpace=wrap;html=1;fontFamily=Helvetica;fontSize=12;align=center;fillColor=#dae8fc;strokeColor=#6c8ebf;" parent="dNxyNK7c78bLwvsdeMH5-20" vertex="1">
          <mxGeometry x="50" y="30" width="120" height="60" as="geometry" />
        </mxCell>
        <mxCell id="CRqh0J7XH1PmzQY5zFd--67" value="Java:&lt;br&gt;tensquare basic" style="rounded=0;whiteSpace=wrap;html=1;fontFamily=Helvetica;fontSize=12;align=center;fillColor=#d5e8d4;strokeColor=#82b366;" parent="dNxyNK7c78bLwvsdeMH5-20" vertex="1">
          <mxGeometry x="400" y="30" width="130" height="60" as="geometry" />
        </mxCell>
        <mxCell id="CRqh0J7XH1PmzQY5zFd--110" value="Math:&lt;br&gt;Advanced mathenmatics" style="rounded=0;whiteSpace=wrap;html=1;fontFamily=Helvetica;fontSize=12;align=center;fillColor=#fff2cc;strokeColor=#d6b656;" parent="dNxyNK7c78bLwvsdeMH5-20" vertex="1">
          <mxGeometry x="1020" y="30" width="130" height="60" as="geometry" />
        </mxCell>
        <mxCell id="m02mXdAlHQZbKpcCpIeu-1" value="weird thing javasript" style="rounded=0;whiteSpace=wrap;html=1;fontFamily=Helvetica;fontSize=12;align=center;fillColor=#d5e8d4;strokeColor=#82b366;" vertex="1" parent="dNxyNK7c78bLwvsdeMH5-20">
          <mxGeometry x="710" y="30" width="100" height="60" as="geometry" />
        </mxCell>
        <mxCell id="CRqh0J7XH1PmzQY5zFd--62" value="4" style="swimlane;html=1;startSize=20;horizontal=0;" parent="dNxyNK7c78bLwvsdeMH5-19" vertex="1">
          <mxGeometry x="20" y="120" width="1380" height="120" as="geometry" />
        </mxCell>
        <mxCell id="CRqh0J7XH1PmzQY5zFd--69" value="Java:&lt;br&gt;tensquare in process" style="rounded=0;whiteSpace=wrap;html=1;fontFamily=Helvetica;fontSize=12;align=center;fillColor=#d5e8d4;strokeColor=#82b366;" parent="CRqh0J7XH1PmzQY5zFd--62" vertex="1">
          <mxGeometry x="400" y="30" width="130" height="60" as="geometry" />
        </mxCell>
        <mxCell id="CRqh0J7XH1PmzQY5zFd--73" value="Vue:&lt;br&gt;miniapp reforge" style="rounded=0;whiteSpace=wrap;html=1;fontFamily=Helvetica;fontSize=12;align=center;fillColor=#dae8fc;strokeColor=#6c8ebf;" parent="CRqh0J7XH1PmzQY5zFd--62" vertex="1">
          <mxGeometry x="50" y="30" width="120" height="60" as="geometry" />
        </mxCell>
        <mxCell id="CRqh0J7XH1PmzQY5zFd--68" value="Schotar:&lt;br&gt;manage system design" style="rounded=0;whiteSpace=wrap;html=1;fontFamily=Helvetica;fontSize=12;align=center;fillColor=#fff2cc;strokeColor=#d6b656;" parent="CRqh0J7XH1PmzQY5zFd--62" vertex="1">
          <mxGeometry x="190" y="30" width="80" height="60" as="geometry" />
        </mxCell>
        <mxCell id="CRqh0J7XH1PmzQY5zFd--79" value="Schotar:&lt;br&gt;frontend design polyfill" style="rounded=0;whiteSpace=wrap;html=1;fontFamily=Helvetica;fontSize=12;align=center;fillColor=#fff2cc;strokeColor=#d6b656;" parent="CRqh0J7XH1PmzQY5zFd--62" vertex="1">
          <mxGeometry x="290" y="30" width="80" height="60" as="geometry" />
        </mxCell>
        <mxCell id="CRqh0J7XH1PmzQY5zFd--80" style="edgeStyle=orthogonalEdgeStyle;rounded=0;orthogonalLoop=1;jettySize=auto;html=1;exitX=1;exitY=0.5;exitDx=0;exitDy=0;entryX=0;entryY=0.5;entryDx=0;entryDy=0;" parent="CRqh0J7XH1PmzQY5zFd--62" source="CRqh0J7XH1PmzQY5zFd--68" target="CRqh0J7XH1PmzQY5zFd--79" edge="1">
          <mxGeometry relative="1" as="geometry" />
        </mxCell>
        <mxCell id="CRqh0J7XH1PmzQY5zFd--115" value="Math:&lt;br&gt;Advanced mathenmatics" style="rounded=0;whiteSpace=wrap;html=1;fontFamily=Helvetica;fontSize=12;align=center;fillColor=#fff2cc;strokeColor=#d6b656;" parent="CRqh0J7XH1PmzQY5zFd--62" vertex="1">
          <mxGeometry x="1020" y="30" width="130" height="60" as="geometry" />
        </mxCell>
        <mxCell id="m02mXdAlHQZbKpcCpIeu-5" style="edgeStyle=orthogonalEdgeStyle;rounded=0;orthogonalLoop=1;jettySize=auto;html=1;exitX=1;exitY=0.5;exitDx=0;exitDy=0;" edge="1" parent="CRqh0J7XH1PmzQY5zFd--62" source="CRqh0J7XH1PmzQY5zFd--77" target="CRqh0J7XH1PmzQY5zFd--130">
          <mxGeometry relative="1" as="geometry" />
        </mxCell>
        <mxCell id="CRqh0J7XH1PmzQY5zFd--77" value="backend:&lt;br&gt;docker nginx redis kafka" style="rounded=0;whiteSpace=wrap;html=1;fontFamily=Helvetica;fontSize=12;align=center;fillColor=#d5e8d4;strokeColor=#82b366;" parent="CRqh0J7XH1PmzQY5zFd--62" vertex="1">
          <mxGeometry x="580" y="30" width="90" height="60" as="geometry" />
        </mxCell>
        <mxCell id="CRqh0J7XH1PmzQY5zFd--78" style="edgeStyle=orthogonalEdgeStyle;rounded=0;orthogonalLoop=1;jettySize=auto;html=1;exitX=1;exitY=0.5;exitDx=0;exitDy=0;" parent="CRqh0J7XH1PmzQY5zFd--62" source="CRqh0J7XH1PmzQY5zFd--69" target="CRqh0J7XH1PmzQY5zFd--77" edge="1">
          <mxGeometry relative="1" as="geometry">
            <Array as="points">
              <mxPoint x="580" y="60" />
            </Array>
          </mxGeometry>
        </mxCell>
        <mxCell id="CRqh0J7XH1PmzQY5zFd--130" value="DataStructure&lt;br&gt;algorithm" style="rounded=0;whiteSpace=wrap;html=1;fontFamily=Helvetica;fontSize=12;align=center;fillColor=#fff2cc;strokeColor=#d6b656;" parent="CRqh0J7XH1PmzQY5zFd--62" vertex="1">
          <mxGeometry x="710" y="30" width="100" height="60" as="geometry" />
        </mxCell>
        <mxCell id="m02mXdAlHQZbKpcCpIeu-4" style="edgeStyle=orthogonalEdgeStyle;rounded=0;orthogonalLoop=1;jettySize=auto;html=1;exitX=0;exitY=0.5;exitDx=0;exitDy=0;" edge="1" parent="CRqh0J7XH1PmzQY5zFd--62" source="m02mXdAlHQZbKpcCpIeu-2" target="CRqh0J7XH1PmzQY5zFd--130">
          <mxGeometry relative="1" as="geometry" />
        </mxCell>
        <mxCell id="m02mXdAlHQZbKpcCpIeu-2" value="weird thing javasript" style="rounded=0;whiteSpace=wrap;html=1;fontFamily=Helvetica;fontSize=12;align=center;fillColor=#d5e8d4;strokeColor=#82b366;" vertex="1" parent="CRqh0J7XH1PmzQY5zFd--62">
          <mxGeometry x="850" y="30" width="100" height="60" as="geometry" />
        </mxCell>
        <mxCell id="CRqh0J7XH1PmzQY5zFd--9" value="5" style="swimlane;html=1;startSize=20;horizontal=0;" parent="dNxyNK7c78bLwvsdeMH5-19" vertex="1">
          <mxGeometry x="20" y="240" width="1380" height="120" as="geometry" />
        </mxCell>
        <mxCell id="CRqh0J7XH1PmzQY5zFd--85" style="edgeStyle=orthogonalEdgeStyle;rounded=0;orthogonalLoop=1;jettySize=auto;html=1;exitX=1;exitY=0.5;exitDx=0;exitDy=0;entryX=0;entryY=0.5;entryDx=0;entryDy=0;" parent="CRqh0J7XH1PmzQY5zFd--9" source="CRqh0J7XH1PmzQY5zFd--81" target="CRqh0J7XH1PmzQY5zFd--84" edge="1">
          <mxGeometry relative="1" as="geometry" />
        </mxCell>
        <mxCell id="CRqh0J7XH1PmzQY5zFd--81" value="flutter&lt;br&gt;test" style="rounded=0;whiteSpace=wrap;html=1;fontFamily=Helvetica;fontSize=12;align=center;fillColor=#fff2cc;strokeColor=#d6b656;" parent="CRqh0J7XH1PmzQY5zFd--9" vertex="1">
          <mxGeometry x="190" y="40" width="70" height="60" as="geometry" />
        </mxCell>
        <mxCell id="CRqh0J7XH1PmzQY5zFd--84" value="Schotar:&lt;br&gt;app&lt;br&gt;implement" style="rounded=0;whiteSpace=wrap;html=1;fontFamily=Helvetica;fontSize=12;align=center;fillColor=#fff2cc;strokeColor=#d6b656;" parent="CRqh0J7XH1PmzQY5zFd--9" vertex="1">
          <mxGeometry x="300" y="40" width="200" height="60" as="geometry" />
        </mxCell>
        <mxCell id="CRqh0J7XH1PmzQY5zFd--97" value="Vue/Java:&lt;br&gt;daily work" style="rounded=0;whiteSpace=wrap;html=1;fontFamily=Helvetica;fontSize=12;align=center;fillColor=#dae8fc;strokeColor=#6c8ebf;" parent="CRqh0J7XH1PmzQY5zFd--9" vertex="1">
          <mxGeometry x="75" y="40" width="70" height="60" as="geometry" />
        </mxCell>
        <mxCell id="CRqh0J7XH1PmzQY5zFd--124" style="edgeStyle=orthogonalEdgeStyle;rounded=0;orthogonalLoop=1;jettySize=auto;html=1;exitX=0;exitY=0.5;exitDx=0;exitDy=0;" parent="CRqh0J7XH1PmzQY5zFd--9" source="CRqh0J7XH1PmzQY5zFd--117" target="CRqh0J7XH1PmzQY5zFd--123" edge="1">
          <mxGeometry relative="1" as="geometry" />
        </mxCell>
        <mxCell id="CRqh0J7XH1PmzQY5zFd--117" value="Math:&lt;br&gt;Advanced mathenmatics" style="rounded=0;whiteSpace=wrap;html=1;fontFamily=Helvetica;fontSize=12;align=center;fillColor=#fff2cc;strokeColor=#d6b656;" parent="CRqh0J7XH1PmzQY5zFd--9" vertex="1">
          <mxGeometry x="1190" y="40" width="130" height="60" as="geometry" />
        </mxCell>
        <mxCell id="CRqh0J7XH1PmzQY5zFd--123" value="Math:&lt;br&gt;linear&lt;br&gt;algebra" style="rounded=0;whiteSpace=wrap;html=1;fontFamily=Helvetica;fontSize=12;align=center;fillColor=#fff2cc;strokeColor=#d6b656;" parent="CRqh0J7XH1PmzQY5zFd--9" vertex="1">
          <mxGeometry x="1020" y="40" width="130" height="60" as="geometry" />
        </mxCell>
        <mxCell id="CRqh0J7XH1PmzQY5zFd--133" value="DataStructure&lt;br&gt;algorithm" style="rounded=0;whiteSpace=wrap;html=1;fontFamily=Helvetica;fontSize=12;align=center;fillColor=#fff2cc;strokeColor=#d6b656;" parent="CRqh0J7XH1PmzQY5zFd--9" vertex="1">
          <mxGeometry x="710" y="40" width="100" height="60" as="geometry" />
        </mxCell>
        <mxCell id="CRqh0J7XH1PmzQY5zFd--42" value="6" style="swimlane;html=1;startSize=20;horizontal=0;" parent="dNxyNK7c78bLwvsdeMH5-19" vertex="1">
          <mxGeometry x="20" y="360" width="1380" height="120" as="geometry" />
        </mxCell>
        <mxCell id="CRqh0J7XH1PmzQY5zFd--86" value="Schotar:&lt;br&gt;app implement" style="rounded=0;whiteSpace=wrap;html=1;fontFamily=Helvetica;fontSize=12;align=center;fillColor=#fff2cc;strokeColor=#d6b656;" parent="CRqh0J7XH1PmzQY5zFd--42" vertex="1">
          <mxGeometry x="370" y="45" width="200" height="60" as="geometry" />
        </mxCell>
        <mxCell id="CRqh0J7XH1PmzQY5zFd--94" value="Vue/Java:&lt;br&gt;daily work" style="rounded=0;whiteSpace=wrap;html=1;fontFamily=Helvetica;fontSize=12;align=center;fillColor=#dae8fc;strokeColor=#6c8ebf;" parent="CRqh0J7XH1PmzQY5zFd--42" vertex="1">
          <mxGeometry x="50" y="45" width="240" height="60" as="geometry" />
        </mxCell>
        <mxCell id="CRqh0J7XH1PmzQY5zFd--121" value="Math:&lt;br&gt;linear&lt;br&gt;algebra" style="rounded=0;whiteSpace=wrap;html=1;fontFamily=Helvetica;fontSize=12;align=center;fillColor=#fff2cc;strokeColor=#d6b656;" parent="CRqh0J7XH1PmzQY5zFd--42" vertex="1">
          <mxGeometry x="1020" y="45" width="130" height="60" as="geometry" />
        </mxCell>
        <mxCell id="CRqh0J7XH1PmzQY5zFd--137" value="DataStructure&lt;br&gt;algorithm" style="rounded=0;whiteSpace=wrap;html=1;fontFamily=Helvetica;fontSize=12;align=center;fillColor=#fff2cc;strokeColor=#d6b656;" parent="CRqh0J7XH1PmzQY5zFd--42" vertex="1">
          <mxGeometry x="710" y="45" width="100" height="60" as="geometry" />
        </mxCell>
        <mxCell id="dNxyNK7c78bLwvsdeMH5-21" value="7" style="swimlane;html=1;startSize=20;horizontal=0;" parent="dNxyNK7c78bLwvsdeMH5-19" vertex="1">
          <mxGeometry x="20" y="480" width="1380" height="120" as="geometry" />
        </mxCell>
        <mxCell id="CRqh0J7XH1PmzQY5zFd--102" value="Vue/Java:&lt;br&gt;daily work" style="rounded=0;whiteSpace=wrap;html=1;fontFamily=Helvetica;fontSize=12;align=center;fillColor=#dae8fc;strokeColor=#6c8ebf;" parent="dNxyNK7c78bLwvsdeMH5-21" vertex="1">
          <mxGeometry x="50" y="40" width="240" height="60" as="geometry" />
        </mxCell>
        <mxCell id="CRqh0J7XH1PmzQY5zFd--90" value="React:&lt;br&gt;schotar antd management" style="rounded=0;whiteSpace=wrap;html=1;fontFamily=Helvetica;fontSize=12;align=center;fillColor=#d5e8d4;strokeColor=#82b366;" parent="dNxyNK7c78bLwvsdeMH5-21" vertex="1">
          <mxGeometry x="320" y="40" width="140" height="60" as="geometry" />
        </mxCell>
        <mxCell id="CRqh0J7XH1PmzQY5zFd--108" style="edgeStyle=orthogonalEdgeStyle;rounded=0;orthogonalLoop=1;jettySize=auto;html=1;" parent="dNxyNK7c78bLwvsdeMH5-21" source="CRqh0J7XH1PmzQY5zFd--106" target="CRqh0J7XH1PmzQY5zFd--90" edge="1">
          <mxGeometry relative="1" as="geometry" />
        </mxCell>
        <mxCell id="CRqh0J7XH1PmzQY5zFd--106" value="Schotar:&lt;br&gt;app implement" style="rounded=0;whiteSpace=wrap;html=1;fontFamily=Helvetica;fontSize=12;align=center;fillColor=#fff2cc;strokeColor=#d6b656;" parent="dNxyNK7c78bLwvsdeMH5-21" vertex="1">
          <mxGeometry x="500" y="40" width="120" height="60" as="geometry" />
        </mxCell>
        <mxCell id="CRqh0J7XH1PmzQY5zFd--126" value="Math:&lt;br&gt;curriculum" style="rounded=0;whiteSpace=wrap;html=1;fontFamily=Helvetica;fontSize=12;align=center;fillColor=#fff2cc;strokeColor=#d6b656;" parent="dNxyNK7c78bLwvsdeMH5-21" vertex="1">
          <mxGeometry x="1020" y="40" width="130" height="60" as="geometry" />
        </mxCell>
        <mxCell id="CRqh0J7XH1PmzQY5zFd--139" value="csapp" style="rounded=0;whiteSpace=wrap;html=1;fontFamily=Helvetica;fontSize=12;align=center;fillColor=#fff2cc;strokeColor=#d6b656;" parent="dNxyNK7c78bLwvsdeMH5-21" vertex="1">
          <mxGeometry x="710" y="40" width="100" height="60" as="geometry" />
        </mxCell>
        <mxCell id="CRqh0J7XH1PmzQY5zFd--119" style="edgeStyle=orthogonalEdgeStyle;rounded=0;orthogonalLoop=1;jettySize=auto;html=1;" parent="dNxyNK7c78bLwvsdeMH5-19" source="CRqh0J7XH1PmzQY5zFd--110" target="CRqh0J7XH1PmzQY5zFd--115" edge="1">
          <mxGeometry relative="1" as="geometry" />
        </mxCell>
        <mxCell id="CRqh0J7XH1PmzQY5zFd--120" style="edgeStyle=orthogonalEdgeStyle;rounded=0;orthogonalLoop=1;jettySize=auto;html=1;entryX=0.5;entryY=0;entryDx=0;entryDy=0;" parent="dNxyNK7c78bLwvsdeMH5-19" source="CRqh0J7XH1PmzQY5zFd--115" target="CRqh0J7XH1PmzQY5zFd--117" edge="1">
          <mxGeometry relative="1" as="geometry" />
        </mxCell>
        <mxCell id="CRqh0J7XH1PmzQY5zFd--125" style="edgeStyle=orthogonalEdgeStyle;rounded=0;orthogonalLoop=1;jettySize=auto;html=1;exitX=0.5;exitY=1;exitDx=0;exitDy=0;entryX=0.5;entryY=0;entryDx=0;entryDy=0;" parent="dNxyNK7c78bLwvsdeMH5-19" source="CRqh0J7XH1PmzQY5zFd--123" target="CRqh0J7XH1PmzQY5zFd--121" edge="1">
          <mxGeometry relative="1" as="geometry" />
        </mxCell>
        <mxCell id="CRqh0J7XH1PmzQY5zFd--127" style="edgeStyle=orthogonalEdgeStyle;rounded=0;orthogonalLoop=1;jettySize=auto;html=1;entryX=0.5;entryY=0;entryDx=0;entryDy=0;" parent="dNxyNK7c78bLwvsdeMH5-19" source="CRqh0J7XH1PmzQY5zFd--121" target="CRqh0J7XH1PmzQY5zFd--126" edge="1">
          <mxGeometry relative="1" as="geometry" />
        </mxCell>
        <mxCell id="CRqh0J7XH1PmzQY5zFd--71" style="edgeStyle=orthogonalEdgeStyle;rounded=0;orthogonalLoop=1;jettySize=auto;html=1;" parent="dNxyNK7c78bLwvsdeMH5-19" source="CRqh0J7XH1PmzQY5zFd--67" target="CRqh0J7XH1PmzQY5zFd--69" edge="1">
          <mxGeometry relative="1" as="geometry" />
        </mxCell>
        <mxCell id="CRqh0J7XH1PmzQY5zFd--74" style="edgeStyle=orthogonalEdgeStyle;rounded=0;orthogonalLoop=1;jettySize=auto;html=1;entryX=0.5;entryY=0;entryDx=0;entryDy=0;" parent="dNxyNK7c78bLwvsdeMH5-19" source="dNxyNK7c78bLwvsdeMH5-24" target="CRqh0J7XH1PmzQY5zFd--73" edge="1">
          <mxGeometry relative="1" as="geometry" />
        </mxCell>
        <mxCell id="CRqh0J7XH1PmzQY5zFd--91" style="edgeStyle=orthogonalEdgeStyle;rounded=0;orthogonalLoop=1;jettySize=auto;html=1;" parent="dNxyNK7c78bLwvsdeMH5-19" source="CRqh0J7XH1PmzQY5zFd--84" target="CRqh0J7XH1PmzQY5zFd--86" edge="1">
          <mxGeometry relative="1" as="geometry" />
        </mxCell>
        <mxCell id="CRqh0J7XH1PmzQY5zFd--100" style="edgeStyle=orthogonalEdgeStyle;rounded=0;orthogonalLoop=1;jettySize=auto;html=1;entryX=0.5;entryY=0;entryDx=0;entryDy=0;" parent="dNxyNK7c78bLwvsdeMH5-19" source="CRqh0J7XH1PmzQY5zFd--73" target="CRqh0J7XH1PmzQY5zFd--97" edge="1">
          <mxGeometry relative="1" as="geometry" />
        </mxCell>
        <mxCell id="CRqh0J7XH1PmzQY5zFd--101" style="edgeStyle=orthogonalEdgeStyle;rounded=0;orthogonalLoop=1;jettySize=auto;html=1;exitX=0.5;exitY=1;exitDx=0;exitDy=0;entryX=0.5;entryY=0;entryDx=0;entryDy=0;" parent="dNxyNK7c78bLwvsdeMH5-19" source="CRqh0J7XH1PmzQY5zFd--97" target="CRqh0J7XH1PmzQY5zFd--94" edge="1">
          <mxGeometry relative="1" as="geometry" />
        </mxCell>
        <mxCell id="CRqh0J7XH1PmzQY5zFd--103" style="edgeStyle=orthogonalEdgeStyle;rounded=0;orthogonalLoop=1;jettySize=auto;html=1;exitX=0.5;exitY=1;exitDx=0;exitDy=0;entryX=0.5;entryY=0;entryDx=0;entryDy=0;" parent="dNxyNK7c78bLwvsdeMH5-19" source="CRqh0J7XH1PmzQY5zFd--94" target="CRqh0J7XH1PmzQY5zFd--102" edge="1">
          <mxGeometry relative="1" as="geometry" />
        </mxCell>
        <mxCell id="CRqh0J7XH1PmzQY5zFd--107" style="edgeStyle=orthogonalEdgeStyle;rounded=0;orthogonalLoop=1;jettySize=auto;html=1;" parent="dNxyNK7c78bLwvsdeMH5-19" source="CRqh0J7XH1PmzQY5zFd--86" target="CRqh0J7XH1PmzQY5zFd--106" edge="1">
          <mxGeometry relative="1" as="geometry" />
        </mxCell>
        <mxCell id="CRqh0J7XH1PmzQY5zFd--109" style="edgeStyle=orthogonalEdgeStyle;rounded=0;orthogonalLoop=1;jettySize=auto;html=1;exitX=0.5;exitY=1;exitDx=0;exitDy=0;" parent="dNxyNK7c78bLwvsdeMH5-19" source="CRqh0J7XH1PmzQY5zFd--79" target="CRqh0J7XH1PmzQY5zFd--81" edge="1">
          <mxGeometry relative="1" as="geometry">
            <Array as="points">
              <mxPoint x="350" y="250" />
              <mxPoint x="265" y="250" />
            </Array>
          </mxGeometry>
        </mxCell>
        <mxCell id="CRqh0J7XH1PmzQY5zFd--134" style="edgeStyle=orthogonalEdgeStyle;rounded=0;orthogonalLoop=1;jettySize=auto;html=1;" parent="dNxyNK7c78bLwvsdeMH5-19" source="CRqh0J7XH1PmzQY5zFd--130" target="CRqh0J7XH1PmzQY5zFd--133" edge="1">
          <mxGeometry relative="1" as="geometry" />
        </mxCell>
        <mxCell id="CRqh0J7XH1PmzQY5zFd--138" style="edgeStyle=orthogonalEdgeStyle;rounded=0;orthogonalLoop=1;jettySize=auto;html=1;exitX=0.5;exitY=1;exitDx=0;exitDy=0;entryX=0.5;entryY=0;entryDx=0;entryDy=0;" parent="dNxyNK7c78bLwvsdeMH5-19" source="CRqh0J7XH1PmzQY5zFd--133" target="CRqh0J7XH1PmzQY5zFd--137" edge="1">
          <mxGeometry relative="1" as="geometry" />
        </mxCell>
        <mxCell id="CRqh0J7XH1PmzQY5zFd--140" style="edgeStyle=orthogonalEdgeStyle;rounded=0;orthogonalLoop=1;jettySize=auto;html=1;" parent="dNxyNK7c78bLwvsdeMH5-19" source="CRqh0J7XH1PmzQY5zFd--137" target="CRqh0J7XH1PmzQY5zFd--139" edge="1">
          <mxGeometry relative="1" as="geometry" />
        </mxCell>
        <mxCell id="m02mXdAlHQZbKpcCpIeu-3" style="edgeStyle=orthogonalEdgeStyle;rounded=0;orthogonalLoop=1;jettySize=auto;html=1;entryX=0.5;entryY=0;entryDx=0;entryDy=0;" edge="1" parent="dNxyNK7c78bLwvsdeMH5-19" source="m02mXdAlHQZbKpcCpIeu-1" target="m02mXdAlHQZbKpcCpIeu-2">
          <mxGeometry relative="1" as="geometry" />
        </mxCell>
      </root>
    </mxGraphModel>
  </diagram>
</mxfile>
